<svg xmlns="http://www.w3.org/2000/svg" width="300" height="300" fill="none" viewBox="0 0 300 300"><circle cx="150" cy="150" r="150" fill="url(#logo_wbg_svg__a)"/><path stroke="#BBFB6B" stroke-linecap="round" stroke-width="9" d="M66 102.742v37.179M130.609 120.094H68.303M132.926 102.742v37.179M66 102.743S66 73 99.46 73c33.462 0 33.462 29.743 33.462 29.743"/><circle cx="199.844" cy="106.461" r="33.461" stroke="#fff" stroke-width="9"/><path stroke="#fff" stroke-width="9" d="M166.383 106.461h66.922"/><path stroke="#fff" stroke-linecap="round" stroke-width="9" d="M68.308 174.998c8.657-8.417 16.981-15.301 31.063-14.99 19.959.441 31.546 13.8 33.371 30.565 1.946 17.875-12.083 36.509-33.371 36.346-18.56-.143-29.596-11.5-32.68-28.628-.517-2.873 1.808-5.373 4.728-5.373h34.904"/><path stroke="#BBFB6B" stroke-linecap="round" stroke-width="9" d="M166.383 159.998v66.922M233.293 209.074v17.846M166.383 209.071s0-26.768 33.461-26.768 33.461 26.768 33.461 26.768"/><defs><linearGradient id="logo_wbg_svg__a" x1="150" x2="150" y1="0" y2="300" gradientUnits="userSpaceOnUse"><stop stop-color="#262730"/><stop offset="1" stop-color="#343542"/></linearGradient></defs></svg>