<svg xmlns="http://www.w3.org/2000/svg" width="300" height="300" fill="none" viewBox="0 0 300 300"><path stroke="#BBFB6B" stroke-linecap="round" stroke-width="9" d="M66 101.742v37.179M130.609 119.094H68.303M132.926 101.742v37.179M66 101.743S66 72 99.46 72c33.462 0 33.462 29.743 33.462 29.743"/><circle cx="199.844" cy="105.461" r="33.461" stroke="#fff" stroke-width="9"/><path stroke="#fff" stroke-width="9" d="M166.383 105.461h66.922"/><path stroke="#fff" stroke-linecap="round" stroke-width="9" d="M68.308 173.998c8.657-8.417 16.981-15.301 31.063-14.99 19.959.441 31.546 13.8 33.371 30.565 1.946 17.875-12.083 36.509-33.371 36.346-18.56-.143-29.596-11.5-32.68-28.628-.517-2.873 1.808-5.373 4.728-5.373h34.904"/><path stroke="#BBFB6B" stroke-linecap="round" stroke-width="9" d="M166.383 158.998v66.922M233.293 208.074v17.846M166.383 208.071s0-26.768 33.461-26.768 33.461 26.768 33.461 26.768"/></svg>